<svg xmlns="http://www.w3.org/2000/svg" xml:space="preserve" viewBox="0 0 421.95 421.95">
  <path fill="#4a044e" d="M266.146 183.011c38.797 11.465 26.51-50.785-4.785-24.51-1.541 1.295-2.043 1.016-.678-.635 25.672-30.996-38.6-42.023-24.368-2.543.334.926.014 1.045-.517.16-22.221-37.119-54.038 23.451-11.018 21.551 1.808-.08 1.918.344.174.746-40.99 9.488 11.184 56.52 17.734 17.27.306-1.828.551-1.553.616.41 1.252 36.951 55.334 5.959 22.626-11.701-1.963-1.062-1.927-1.383.216-.748zm-11.458-6.72c-2.128-.32-2.822.832-1.546 2.564 1.275 1.73 1.491 3.76.478 4.508s-2.891-.055-4.167-1.785-2.585-1.408-2.906.719c-.319 2.127-1.604 3.715-2.851 3.525-1.247-.188-2.005-2.082-1.685-4.209s-.833-2.822-2.562-1.545c-1.73 1.277-3.76 1.492-4.509.477-.749-1.014.055-2.889 1.785-4.166 1.729-1.277 1.406-2.586-.722-2.906-2.127-.32-3.713-1.604-3.523-2.852.188-1.246 2.082-2.004 4.21-1.684 2.127.32 2.821-.832 1.545-2.563-1.277-1.732-1.491-3.76-.478-4.51 1.016-.748 2.891.055 4.167 1.787 1.276 1.73 2.584 1.406 2.904-.721.321-2.127 1.604-3.713 2.852-3.525s2.006 2.082 1.685 4.209c-.32 2.127.833 2.822 2.563 1.545 1.729-1.277 3.761-1.492 4.508-.477.749 1.016-.055 2.891-1.784 4.168-1.73 1.275-1.407 2.584.72 2.904 2.128.32 3.714 1.604 3.525 2.852-.189 1.248-2.082 2.005-4.209 1.685zM133.503 323.326c30.992 9.156 21.178-40.568-3.822-19.578-1.231 1.033-1.633.811-.541-.508 20.507-24.764-30.834-33.57-19.467-2.031.267.74.011.836-.412.129-17.75-29.654-43.168 18.732-8.8 17.215 1.442-.062 1.532.273.138.596-32.745 7.578 8.934 45.15 14.168 13.797.244-1.463.439-1.24.492.326 1.001 29.52 44.203 4.764 18.075-9.348-1.57-.85-1.542-1.104.169-.598zm-9.151-5.37c-1.699-.256-2.254.666-1.234 2.049 1.021 1.383 1.191 3.004.381 3.602-.81.6-2.309-.043-3.329-1.426s-2.064-1.125-2.32.574c-.257 1.699-1.281 2.967-2.277 2.816-.996-.151-1.602-1.664-1.346-3.363.257-1.699-.665-2.254-2.048-1.234-1.382 1.021-3.003 1.191-3.601.381-.599-.811.043-2.309 1.426-3.326 1.383-1.021 1.124-2.064-.575-2.32-1.699-.258-2.966-1.281-2.816-2.277.15-.996 1.664-1.602 3.362-1.346 1.699.256 2.255-.666 1.234-2.049-1.02-1.384-1.191-3.002-.381-3.604.811-.598 2.309.045 3.329 1.43 1.02 1.383 2.064 1.122 2.321-.576.256-1.699 1.281-2.968 2.277-2.816s1.602 1.664 1.345 3.363c-.256 1.699.665 2.254 2.048 1.232 1.383-1.02 3.004-1.189 3.602-.381.599.812-.043 2.311-1.426 3.328-1.383 1.021-1.124 2.064.575 2.322 1.699.256 2.966 1.281 2.815 2.277-.152.995-1.664 1.602-3.362 1.344zm206.5-80.836c31.347 9.264 21.419-41.029-3.864-19.802-1.246 1.046-1.649.819-.548-.513 20.74-25.043-31.185-33.952-19.688-2.057.271.748.011.846-.417.131-17.951-29.989-43.66 18.945-8.9 17.41 1.46-.064 1.551.276.142.604-33.117 7.664 9.034 45.664 14.328 13.951.246-1.477.443-1.254.498.332 1.013 29.854 44.705 4.814 18.279-9.453-1.592-.856-1.561-1.114.17-.603zm-9.257-5.43c-1.718-.258-2.279.676-1.248 2.072 1.031 1.398 1.205 3.037.386 3.645-.818.604-2.335-.045-3.366-1.443-1.031-1.397-2.089-1.137-2.348.582-.261 1.719-1.297 3-2.304 2.848-1.008-.15-1.62-1.682-1.36-3.398.26-1.72-.674-2.279-2.071-1.248s-3.036 1.205-3.643.385c-.605-.82.043-2.334 1.441-3.367 1.397-1.03 1.137-2.088-.581-2.348-1.72-.258-3-1.295-2.85-2.303.151-1.01 1.684-1.619 3.4-1.359 1.719.258 2.28-.674 1.248-2.072-1.032-1.396-1.205-3.037-.386-3.643.819-.606 2.336.045 3.366 1.441 1.031 1.398 2.089 1.139 2.349-.581.259-1.72 1.296-3 2.303-2.849 1.009.152 1.62 1.683 1.361 3.4-.261 1.719.672 2.277 2.069 1.248 1.397-1.031 3.038-1.205 3.644-.387.604.82-.044 2.334-1.441 3.367-1.397 1.031-1.138 2.088.582 2.347 1.718.261 3 1.298 2.849 2.306-.151 1.006-1.682 1.618-3.4 1.357zm77.435-106.727c36.632 10.826 25.031-47.951-4.519-23.141-1.456 1.223-1.93.959-.64-.6 24.238-29.268-36.444-39.678-23.01-2.402.314.875.014.988-.486.152-20.98-35.049-51.024 22.143-10.401 20.348 1.705-.074 1.812.324.163.705-38.703 8.959 10.56 53.367 16.745 16.307.288-1.729.521-1.467.583.387 1.184 34.889 52.246 5.627 21.363-11.049-1.856-1.004-1.822-1.305.202-.707zm-12.253-7.249c-1.693-.256-2.249.664-1.23 2.043s1.188 2.996.381 3.594c-.811.596-2.304-.045-3.32-1.424-1.018-1.379-2.061-1.121-2.314.574-.255 1.695-1.278 2.959-2.271 2.809-.994-.15-1.599-1.658-1.343-3.354.255-1.695-.664-2.25-2.043-1.232-1.38 1.018-2.996 1.189-3.594.381-.597-.809.044-2.303 1.424-3.32 1.379-1.018 1.121-2.061-.574-2.316-1.694-.255-2.959-1.277-2.81-2.271.149-.994 1.658-1.598 3.354-1.342 1.694.256 2.249-.664 1.23-2.043s-1.188-2.996-.38-3.592c.809-.598 2.303.043 3.319 1.422 1.018 1.379 2.061 1.121 2.314-.574.255-1.695 1.277-2.959 2.271-2.809.993.15 1.599 1.66 1.342 3.354-.256 1.695.663 2.25 2.044 1.232 1.379-1.018 2.995-1.189 3.592-.381.598.809-.043 2.305-1.422 3.322-1.38 1.018-1.121 2.059.572 2.314 1.694.256 2.959 1.277 2.811 2.271-.149.995-1.657 1.598-3.353 1.342z"/>
  <path fill="#581c87" d="M343.035 152.609c1.392-1.074.66-1.727.274-2.146-3.893-4.242-6.592-9.471-7.213-14.904-.015-.129-.028-.268-.043-.414-.049-.549-.379-1.734-1.869-.834-11.098 7.057-21.022 13.029-35.828 21.066-1.742 1.242-.862 2.021-.606 2.656 1.408 3.504 2.149 7.303 2.15 11.064 0 2.623-.335 5.102-.964 7.406-.158.586.177 1.344 2.032.371 17.613-9.224 29.103-16.099 42.067-24.265zm24.416 55.273c-4.324 1.496-5.668 2.109-9.858 3.464-2.229.688-.92 1.984-.54 2.718 1.432 2.76 2.349 5.807 2.704 8.9.058.494.045 1.506 1.262 1.09 3.918-1.34 6.967-2.447 10.79-3.891.432-.162 1.39-.629 1.013-1.326l-3.989-10.512c-.005.004-.262-.83-1.382-.443zm-93.969 22.959c-.854-1.481-1.503-3.07-1.953-4.725-.142-.52-.249-1.604-1.745-1.604-11.547-.225-20.518-1.18-29.364-2.473-11.593-1.691-20.137-3.607-28.212-5.895-.843-.404-.765-.621.172-.938.858-.365-.06-1.246-.65-1.707-5.169-4.012-9.199-9.549-10.915-15.557-.195-.682-.531-1.961-2.748-1.486-58.277 15.138-122.495 20.355-190.06-.385 0 0-5.059-1.084-5.659 4.293-.458 4.098-1.37 11.629-2.187 18.016-.962 7.525 2.715 7.896 2.715 7.896 15.997 4.908 26.146 6.945 43.261 8.943 2.468.146 4.192 1.236 4.872 1.711 12.205 8.557 28.721 22.604 41.261 44.938.555.857 1.189.564 1.588.514.816-.105 1.643-.168 2.476-.168 1.188 0 2.489.102 3.865.383.433.088.636.021.808-.258.461-.746.849-1.479 1.294-2.113 1.538-2.188 3.013-3.697 5.26-5.105.556-.371.261-.838.154-1.104-6-14.855-13.342-26.756-21.438-35.025-.457-.465-1.036-1.086.464-1.369 17.842 0 34.335-1.461 53.072-4.398 8.768-1.375 17.636-3.09 26.584-5.107.988-.225 2.219-.416 4.707-.416 19.428 2.957 45.935 6.896 66.393 9.93 10.506 1.557 22.952 2.639 37.077 2.689 1.375-.018 1.505-.611 1.587-.92.246-.932.565-1.855.976-2.77.128-.285.021-1.098-.771-1.982-1.249-1.394-2.232-2.681-2.884-3.808z"/>
</svg>
