<?xml version="1.0" encoding="UTF-8" standalone="no"?>
<!-- Created with Inkscape (http://www.inkscape.org/) -->

<svg
   width="104.39736mm"
   height="99.489517mm"
   viewBox="0 0 104.39736 99.489517"
   version="1.1"
   id="svg1"
   sodipodi:docname="logo-3.svg"
   xml:space="preserve"
   inkscape:version="1.3.1 (91b66b0783, 2023-11-16)"
   xmlns:inkscape="http://www.inkscape.org/namespaces/inkscape"
   xmlns:sodipodi="http://sodipodi.sourceforge.net/DTD/sodipodi-0.dtd"
   xmlns="http://www.w3.org/2000/svg"
   xmlns:svg="http://www.w3.org/2000/svg"><sodipodi:namedview
     id="namedview1"
     pagecolor="#ffffff"
     bordercolor="#000000"
     borderopacity="0.25"
     inkscape:showpageshadow="2"
     inkscape:pageopacity="0.0"
     inkscape:pagecheckerboard="0"
     inkscape:deskcolor="#d1d1d1"
     inkscape:document-units="mm"
     inkscape:zoom="1.4485269"
     inkscape:cx="439.06674"
     inkscape:cy="172.93431"
     inkscape:window-width="2560"
     inkscape:window-height="1009"
     inkscape:window-x="1432"
     inkscape:window-y="-8"
     inkscape:window-maximized="1"
     inkscape:current-layer="layer1" /><defs
     id="defs1" /><g
     inkscape:label="Слой 1"
     inkscape:groupmode="layer"
     id="layer1"
     transform="translate(-37.99262,-32.147601)"><text
       xml:space="preserve"
       style="font-weight:bold;font-size:68.9942px;font-family:Calibri;-inkscape-font-specification:'Calibri Bold';fill:#0000ff;stroke:#000000;stroke-width:7.11399;stroke-linecap:round;stroke-linejoin:round;paint-order:stroke fill markers"
       x="100.95578"
       y="164.45357"
       id="text1-1"><tspan
         sodipodi:role="line"
         id="tspan1-7"
         style="font-style:normal;font-variant:normal;font-weight:normal;font-stretch:normal;font-family:'Wingdings 3';-inkscape-font-specification:'Wingdings 3, ';stroke-width:7.11399"
         x="100.95578"
         y="164.45357" /></text><text
       xml:space="preserve"
       style="font-style:normal;font-variant:normal;font-weight:normal;font-stretch:normal;font-size:19.7556px;font-family:'Wingdings 3';-inkscape-font-specification:'Wingdings 3, ';fill:#0000ff;fill-opacity:1;stroke:none;stroke-width:2.037;stroke-linecap:round;stroke-linejoin:round;paint-order:stroke fill markers"
       x="87.698196"
       y="98.03083"
       id="text2"><tspan
         sodipodi:role="line"
         id="tspan2"
         style="stroke-width:2.037"
         x="87.698196"
         y="98.03083" /></text><path
       d="m 122.60747,105.73565 v -6.504464 h -13.00893 v 6.504464 z"
       style="font-size:68.9942px;font-family:'Wingdings 3';-inkscape-font-specification:'Wingdings 3, ';fill:#f87171;fill-opacity:1;stroke:#f87171;stroke-width:2.75786;stroke-linecap:round;stroke-linejoin:round;stroke-opacity:1;paint-order:stroke fill markers"
       id="path1-9" /><g
       id="g1"
       transform="matrix(0.27887701,0,0,0.27887701,72.144316,87.435176)"
       style="fill:#f472b6;fill-opacity:1;stroke:none"><path
         fill="#ffc0cb"
         d="m 142.45332,27.331821 c 157.10631,46.42688 107.35078,-205.651061 -19.3766,-99.25189 -6.24019,5.24403 -8.27301,4.11423 -2.74552,-2.5714 103.95735,-125.516591 -156.308572,-170.169821 -98.676872,-10.29774 1.35252,3.74979 0.0567,4.23167 -2.09356,0.64791 -89.98271,-150.311341 -218.823898,94.96353 -44.61678,87.2695905 7.32139,-0.32396 7.76683,1.393 0.7046,3.02088 -165.986738,38.4211295 45.28899,228.8746185 71.81285,69.9339095 1.23913,-7.40238 2.23125,-6.28879 2.49446,1.66027 5.06991,149.631039 224.071982,24.130649 91.622742,-47.38255 -7.94906,-4.30051 -7.80328,-5.60038 0.87468,-3.02898 z M 96.054778,0.11955146 c -8.61722,-1.29581996 -11.42753,3.36914004 -6.26044,10.38276954 5.16304,7.00554 6.03772,15.22592 1.93563,18.2549 -4.10208,3.02899 -11.70694,-0.22272 -16.87403,-7.22826 -5.1671,-7.00554 -10.46782,-5.70162 -11.76769,2.91155 -1.29177,8.61317 -6.49531,15.04369 -11.54497,14.2743 -5.04965,-0.7613 -8.11913,-8.43095 -6.82331,-17.04412 1.29582,-8.61317 -3.37319,-11.42753 -10.37468,-6.25639 -7.00554,5.17114 -15.22591,6.04177 -18.25895,1.93159 -3.03303,-4.10614 0.22272,-11.6988495 7.22826,-16.86998954 7.00149,-5.17113996 5.69352,-10.47186996 -2.9237,-11.76769046 -8.61317,-1.29582 -15.0355805,-6.49531 -14.2661905,-11.54901 0.7613,-5.04561 8.4309405,-8.11509 17.0481605,-6.81927 8.61317,1.29582 11.42349,-3.36914 6.25639,-10.37873 -5.17114,-7.01363 -6.03772,-15.22591 -1.93563,-18.26299 4.11424,-3.02899 11.70695,0.22272 16.87404,7.23636 5.16709,7.00554 10.46376,5.69352 11.75958,-2.91965 1.29988,-8.61317 6.49531,-15.03559 11.54902,-14.2743 5.05371,0.7613 8.12319,8.43095 6.82332,17.04412 -1.29583,8.61317 3.37318,11.42753 10.37872,6.25639 7.00149,-5.17114 15.229962,-6.04177 18.254902,-1.93159 3.03303,4.11424 -0.22272,11.70695 -7.224212,16.87809 -7.00554,5.16304 -5.69757,10.46376 2.9156,11.75959 8.617222,1.29582 15.039642,6.49531 14.274292,11.5490105 -0.76534,5.05371 -8.43094,8.11914 -17.044112,6.82331996 z"
         id="path1"
         sodipodi:nodetypes="cccccccccccccssccsccccccccccscccccsc"
         style="fill:#f472b6;fill-opacity:1;stroke:none;stroke-width:4.04944" /></g><path
       style="font-size:68.9942px;font-family:'Wingdings 3';-inkscape-font-specification:'Wingdings 3, ';fill:#f87171;fill-opacity:1;stroke:#f87171;stroke-width:2.75786;stroke-linecap:round;stroke-linejoin:round;stroke-opacity:1;paint-order:stroke fill markers"
       d="M 101.10898,102.05941 84.847817,85.798251 v 13.008924 h -21.6669 L 76.286786,59.4805 H 89.295717 V 52.976035 H 69.826269 L 52.224307,105.31164 h 32.62351 v 13.00893 z M 121.67716,76.041553 V 69.537088 H 84.847817 v 6.504465 z"
       id="text1"
       aria-label="C"
       sodipodi:nodetypes="ccccccccccccccccc" /><g
       id="g2"
       transform="matrix(0.27887701,0,0,0.27887701,72.144316,87.435176)"
       style="fill:#f472b6;fill-opacity:1"><path
         id="path2"
         style="fill:#f472b6;fill-opacity:1;stroke-width:4.04944"
         d="m 71.435042,-187.53442 c -38.812994,1.97679 -73.8618951,32.04487 -50.656445,99.944643 0.103308,0.193948 0.189679,0.422638 0.239322,0.705878 0.007,0.03975 0.01016,0.07297 0.01692,0.1112 0.236573,0.681269 0.370531,1.295826 0.618853,1.984679 0.833912,2.311978 0.589933,3.204854 -0.169218,2.84527 0.116089,1.350706 0.152317,1.661837 0.345687,3.285236 0.333687,3.081944 1.177829,6.052682 2.158731,8.98061 0.765698,2.096486 1.562089,4.200447 2.661549,6.149845 0.236652,0.419597 0.498014,0.825298 0.746974,1.237704 0.673452,1.059176 1.399179,2.082219 2.149061,3.08701 4.272426,-1.044526 10.418323,2.160851 14.821029,8.136941 5.167085,7.005533 10.464792,5.692952 11.760611,-2.92021 1.299879,-8.613161 6.494176,-15.035987 11.547881,-14.274698 5.053705,0.761299 8.124166,8.431868 6.824297,17.045029 -1.295829,8.613162 3.37233,11.427345 10.377863,6.25621 2.884625,-2.130517 5.962357,-3.486609 8.81381,-4.109566 2.555264,-1.67207 5.176836,-3.239706 7.742903,-4.895218 1.9874,-1.321231 3.96551,-2.658034 5.81867,-4.165166 1.17867,-0.958588 1.88398,-1.613375 3.01932,-2.627705 2.88165,-2.621014 5.70755,-5.299557 8.47779,-8.037828 0.0972,-0.09628 0.19078,-0.195951 0.28767,-0.292504 -2.71399,1.354878 -2.7396,-0.527392 1.29331,-5.405288 58.47595,-70.603012 1.70953,-115.619502 -48.896588,-113.042072 z"
         sodipodi:nodetypes="scscccccsccccsccccsccccs" /></g><path
       d="M 121.57377,76.030169 V 69.525705 H 84.744433 v 6.504464 z"
       style="font-size:68.9942px;font-family:'Wingdings 3';-inkscape-font-specification:'Wingdings 3, ';fill:#f87171;fill-opacity:1;stroke:#f87171;stroke-width:2.75786;stroke-linecap:round;stroke-linejoin:round;stroke-opacity:1;paint-order:stroke fill markers"
       id="path1-8" /><path
       d="m 98.207339,49.071827 c 0,1.087703 -0.169642,2.050671 -0.508927,2.888903 -0.339283,0.838232 -0.833242,1.546737 -1.481872,2.125515 -0.648632,0.5688 -1.446948,1.002885 -2.394948,1.302252 -0.938021,0.299369 -2.045683,0.449053 -3.322988,0.449053 h -1.616589 v 6.181957 c 0,0.09979 -0.03494,0.189597 -0.10477,0.269431 -0.05988,0.07984 -0.164657,0.1447 -0.314337,0.194588 -0.14968,0.04989 -0.349263,0.08982 -0.598738,0.119747 -0.249473,0.02993 -0.5688,0.0449 -0.957978,0.0449 -0.379201,0 -0.698525,-0.0149 -0.957979,-0.0449 -0.249473,-0.02993 -0.449051,-0.06986 -0.598737,-0.119747 -0.149679,-0.04988 -0.254462,-0.114749 -0.314335,-0.194588 -0.05988,-0.07984 -0.08982,-0.16964 -0.08982,-0.269431 V 44.596268 c 0,-0.469012 0.119746,-0.818274 0.359242,-1.047789 0.249473,-0.239496 0.573789,-0.359242 0.972948,-0.359242 h 4.565367 c 0.459032,0 0.893117,0.01996 1.302252,0.05986 0.419116,0.02993 0.918063,0.104784 1.496842,0.224527 0.578779,0.109766 1.162548,0.319327 1.751305,0.628675 0.598736,0.309347 1.107663,0.703514 1.526778,1.182504 0.419117,0.469011 0.738442,1.022841 0.95798,1.661494 0.219536,0.628675 0.329304,1.33718 0.329304,2.125517 z m -4.116315,0.284399 c 0,-0.67857 -0.119746,-1.237391 -0.359242,-1.676463 -0.239495,-0.439075 -0.533872,-0.76339 -0.883135,-0.972948 -0.349265,-0.209558 -0.718487,-0.339283 -1.107666,-0.389179 -0.3792,-0.05988 -0.773368,-0.08982 -1.182504,-0.08982 h -1.676462 v 6.571134 h 1.766272 c 0.628674,0 1.152568,-0.08483 1.571684,-0.254461 0.429094,-0.169642 0.778359,-0.404148 1.047791,-0.703517 0.269431,-0.309348 0.473998,-0.673578 0.613706,-1.092694 0.139701,-0.429094 0.209556,-0.893115 0.209556,-1.392064 z m 23.141176,11.82505 c 0,0.229515 -0.0399,0.434085 -0.11974,0.613704 -0.0798,0.179621 -0.18961,0.329305 -0.32931,0.449054 -0.12973,0.119746 -0.28939,0.209557 -0.479,0.26943 -0.17962,0.04989 -0.36422,0.07485 -0.55383,0.07485 h -1.67645 c -0.34927,0 -0.65363,-0.03494 -0.91308,-0.104783 -0.24947,-0.06985 -0.48398,-0.194586 -0.70351,-0.374211 -0.20957,-0.1896 -0.41413,-0.439068 -0.61372,-0.748416 -0.19957,-0.319325 -0.4241,-0.728463 -0.67357,-1.227412 L 106.35016,51.0776 c -0.27941,-0.538863 -0.56381,-1.117642 -0.8532,-1.736337 -0.28939,-0.628674 -0.54884,-1.237389 -0.77836,-1.826148 h -0.0299 c 0.0399,0.718485 0.0699,1.436969 0.0898,2.155453 0.02,0.708506 0.0299,1.441959 0.0299,2.200359 v 10.133618 c 0,0.09979 -0.0299,0.189596 -0.0898,0.269432 -0.0499,0.07984 -0.1447,0.149679 -0.2844,0.209556 -0.12973,0.04989 -0.30935,0.08982 -0.53886,0.119747 -0.22952,0.02993 -0.5239,0.0449 -0.88314,0.0449 -0.34926,0 -0.63865,-0.0149 -0.86817,-0.0449 -0.22951,-0.02993 -0.40913,-0.06986 -0.53886,-0.119747 -0.12973,-0.05988 -0.21954,-0.129726 -0.26943,-0.209556 -0.0499,-0.07984 -0.0748,-0.169642 -0.0748,-0.269432 V 44.596268 c 0,-0.469012 0.13472,-0.818274 0.40415,-1.047789 0.27941,-0.239496 0.61869,-0.359242 1.01785,-0.359242 h 2.11055 c 0.3792,0 0.69852,0.03494 0.95798,0.104769 0.25945,0.05988 0.48896,0.164657 0.68854,0.314338 0.20956,0.14968 0.40415,0.359242 0.58377,0.628674 0.17962,0.259452 0.36423,0.583768 0.55383,0.972946 l 3.77205,7.080064 c 0.21953,0.429093 0.43408,0.853199 0.64364,1.272314 0.21954,0.409136 0.4291,0.823262 0.62867,1.242377 0.19958,0.409137 0.39417,0.813285 0.58377,1.212444 0.18961,0.399156 0.37421,0.798315 0.55383,1.197474 h 0.0149 c -0.0299,-0.698527 -0.0549,-1.426991 -0.0749,-2.185389 -0.01,-0.7584 -0.0149,-1.481876 -0.0149,-2.170422 v -9.08583 c 0,-0.09979 0.0299,-0.189597 0.0898,-0.269432 0.0599,-0.07984 0.15966,-0.149679 0.29937,-0.209558 0.1397,-0.05988 0.32432,-0.09979 0.55383,-0.119746 0.22951,-0.02993 0.52389,-0.0449 0.88314,-0.0449 0.33928,0 0.62368,0.0149 0.8532,0.0449 0.22951,0.01996 0.40414,0.05986 0.52389,0.119746 0.12973,0.05988 0.21954,0.129727 0.26944,0.209558 0.0498,0.07984 0.0749,0.169642 0.0749,0.269432 z m 19.75831,-14.983388 c 0,0.289391 -0.0149,0.538863 -0.0449,0.748422 -0.0199,0.209557 -0.0549,0.379198 -0.10478,0.508925 -0.0399,0.119746 -0.0948,0.204569 -0.16465,0.254464 -0.0599,0.04988 -0.13472,0.07485 -0.22452,0.07485 -0.12973,0 -0.33929,-0.08982 -0.62868,-0.269433 -0.28939,-0.179619 -0.67357,-0.37421 -1.15257,-0.583767 -0.47898,-0.209558 -1.05278,-0.404148 -1.72136,-0.583769 -0.65861,-0.179619 -1.42699,-0.26943 -2.30514,-0.26943 -0.93802,0 -1.78623,0.164652 -2.54463,0.493957 -0.7584,0.319325 -1.40703,0.778357 -1.9459,1.377094 -0.53886,0.588759 -0.95299,1.302254 -1.24237,2.140484 -0.28939,0.828252 -0.43409,1.746315 -0.43409,2.754188 0,1.107663 0.1447,2.0856 0.43409,2.93381 0.29936,0.838232 0.71349,1.541749 1.24237,2.110549 0.52888,0.5688 1.16255,0.997893 1.901,1.287283 0.74841,0.289391 1.57168,0.434085 2.46978,0.434085 0.43907,0 0.87316,-0.04989 1.30226,-0.14968 0.42909,-0.09979 0.82825,-0.249472 1.19747,-0.449054 v -4.490524 h -3.66726 c -0.17963,0 -0.31933,-0.109767 -0.41912,-0.329306 -0.0998,-0.229514 -0.14968,-0.613703 -0.14968,-1.152568 0,-0.279409 0.01,-0.513915 0.0299,-0.703515 0.0299,-0.189601 0.0699,-0.339285 0.11975,-0.449052 0.0498,-0.119747 0.10977,-0.20457 0.17962,-0.254464 0.0699,-0.05988 0.14968,-0.08981 0.23949,-0.08981 h 6.5412 c 0.15966,0 0.29938,0.02993 0.41912,0.08981 0.12973,0.04988 0.23949,0.129725 0.3293,0.239495 0.0998,0.109767 0.17463,0.244484 0.22453,0.404146 0.0498,0.14968 0.0749,0.324316 0.0749,0.523895 v 7.708735 c 0,0.299369 -0.0549,0.563812 -0.16466,0.793327 -0.0998,0.219538 -0.31434,0.394169 -0.64364,0.523895 -0.31933,0.129726 -0.71848,0.264442 -1.19748,0.404148 -0.47898,0.139701 -0.97793,0.259452 -1.49683,0.359242 -0.50893,0.09979 -1.02784,0.174627 -1.55672,0.224526 -0.51891,0.04988 -1.0428,0.07485 -1.57169,0.07485 -1.54673,0 -2.93381,-0.219537 -4.16121,-0.658609 -1.21744,-0.449052 -2.25026,-1.092695 -3.09847,-1.930928 -0.84821,-0.84821 -1.49684,-1.87604 -1.9459,-3.083493 -0.44905,-1.217431 -0.67357,-2.594527 -0.67357,-4.131284 0,-1.586653 0.23949,-3.008651 0.71848,-4.265998 0.47899,-1.267326 1.15756,-2.340064 2.0357,-3.218211 0.87815,-0.888125 1.93592,-1.566694 3.17331,-2.035705 1.24737,-0.469009 2.63444,-0.703515 4.16122,-0.703515 0.83824,0 1.60162,0.05986 2.29017,0.179621 0.68855,0.109767 1.28728,0.249473 1.79621,0.419115 0.51891,0.159664 0.948,0.334295 1.28728,0.523895 0.33929,0.189601 0.5738,0.354253 0.70352,0.493958 0.1397,0.139702 0.23949,0.339284 0.29937,0.598736 0.0599,0.249474 0.0898,0.623685 0.0898,1.122632 z"
       id="text4"
       style="font-weight:bold;font-size:19.7556px;font-family:Calibri;-inkscape-font-specification:'Calibri Bold';fill:#f87171;stroke:#f87171;stroke-width:3.16087;stroke-linecap:round;stroke-linejoin:round;paint-order:stroke fill markers;fill-opacity:1;stroke-opacity:1"
       aria-label="PNG"
       sodipodi:nodetypes="ssccscscssscsssscsscccccssssscsccscccssssccsscccccccccssccssscssscsscccccccscccsssscsccsssscccssscscccscscssccscscccsscccssccsccscccscccsccsccss" /></g></svg>
