<svg width="104.4mm" height="99.49mm" version="1.1" viewBox="0 0 104.4 99.49" xml:space="preserve" xmlns="http://www.w3.org/2000/svg"><g transform="translate(-37.993 -32.148)"><text x="100.95578" y="164.45357" fill="#0000ff" font-family="Calibri" font-size="68.994px" font-weight="bold" stroke="#000000" stroke-linecap="round" stroke-linejoin="round" stroke-width="7.114" style="paint-order:stroke fill markers" xml:space="preserve"><tspan x="100.95578" y="164.45357" font-family="'Wingdings 3'" font-weight="normal" stroke-width="7.114"/></text><text x="87.698196" y="98.03083" fill="#0000ff" font-family="'Wingdings 3'" font-size="19.756px" stroke-linecap="round" stroke-linejoin="round" stroke-width="2.037" style="paint-order:stroke fill markers" xml:space="preserve"><tspan x="87.698196" y="98.03083" stroke-width="2.037"/></text><g transform="matrix(.94051 0 0 .94051 17.367 12.5)"><g><path d="m111.9 99.133v-6.9159h-13.832v6.9159z" fill="#ee82ee" stroke="#ee82ee" stroke-linecap="round" stroke-linejoin="round" stroke-width="2.9323" style="paint-order:stroke fill markers"/><g transform="matrix(.29652 0 0 .29652 58.242 79.675)" fill="#ffc0cb"><path d="m142.45 27.332c157.11 46.427 107.35-205.65-19.377-99.252-6.2402 5.244-8.273 4.1142-2.7455-2.5714 103.96-125.52-156.31-170.17-98.677-10.298 1.3525 3.7498 0.0567 4.2317-2.0936 0.64791-89.983-150.31-218.82 94.964-44.617 87.27 7.3214-0.32396 7.7668 1.393 0.7046 3.0209-165.99 38.421 45.289 228.87 71.813 69.934 1.2391-7.4024 2.2312-6.2888 2.4945 1.6603 5.0699 149.63 224.07 24.131 91.623-47.383-7.9491-4.3005-7.8033-5.6004 0.87468-3.029zm-46.399-27.212c-8.6172-1.2958-11.428 3.3691-6.2604 10.383 5.163 7.0055 6.0377 15.226 1.9356 18.255-4.1021 3.029-11.707-0.22272-16.874-7.2283-5.1671-7.0055-10.468-5.7016-11.768 2.9116-1.2918 8.6132-6.4953 15.044-11.545 14.274-5.0496-0.7613-8.1191-8.431-6.8233-17.044s-3.3732-11.428-10.375-6.2564c-7.0055 5.1711-15.226 6.0418-18.259 1.9316-3.033-4.1061 0.22272-11.699 7.2283-16.87 7.0015-5.1711 5.6935-10.472-2.9237-11.768-8.6132-1.2958-15.036-6.4953-14.266-11.549 0.7613-5.0456 8.4309-8.1151 17.048-6.8193 8.6132 1.2958 11.423-3.3691 6.2564-10.379-5.1711-7.0136-6.0377-15.226-1.9356-18.263 4.1142-3.029 11.707 0.22272 16.874 7.2364 5.1671 7.0055 10.464 5.6935 11.76-2.9196 1.2999-8.6132 6.4953-15.036 11.549-14.274 5.0537 0.7613 8.1232 8.431 6.8233 17.044-1.2958 8.6132 3.3732 11.428 10.379 6.2564 7.0015-5.1711 15.23-6.0418 18.255-1.9316 3.033 4.1142-0.22272 11.707-7.2242 16.878-7.0055 5.163-5.6976 10.464 2.9156 11.76 8.6172 1.2958 15.04 6.4953 14.274 11.549-0.76534 5.0537-8.4309 8.1191-17.044 6.8233z" fill="#ffc0cb"/></g><path d="m89.038 95.224-17.29-17.29v13.832h-23.037l13.935-41.814h13.832v-6.9159h-20.701l-18.715 55.646h34.687v13.832zm21.869-27.663v-6.9159h-39.159v6.9159z" fill="#ee82ee" stroke="#ee82ee" stroke-linecap="round" stroke-linejoin="round" stroke-width="2.9323" style="paint-order:stroke fill markers" aria-label="C"/><g transform="matrix(.29652 0 0 .29652 58.242 79.675)" fill="#ffc0cb"><path d="m71.435-187.53c-38.813 1.9768-73.862 32.045-50.656 99.945 0.10331 0.19395 0.18968 0.42264 0.23932 0.70588 7e-3 0.03975 0.01016 0.07297 0.01692 0.1112 0.23657 0.68127 0.37053 1.2958 0.61885 1.9847 0.83391 2.312 0.58993 3.2049-0.16922 2.8453 0.11609 1.3507 0.15232 1.6618 0.34569 3.2852 0.33369 3.0819 1.1778 6.0527 2.1587 8.9806 0.7657 2.0965 1.5621 4.2004 2.6615 6.1498 0.23665 0.4196 0.49801 0.8253 0.74697 1.2377 0.67345 1.0592 1.3992 2.0822 2.1491 3.087 4.2724-1.0445 10.418 2.1609 14.821 8.1369 5.1671 7.0055 10.465 5.693 11.761-2.9202 1.2999-8.6132 6.4942-15.036 11.548-14.275 5.0537 0.7613 8.1242 8.4319 6.8243 17.045-1.2958 8.6132 3.3723 11.427 10.378 6.2562 2.8846-2.1305 5.9624-3.4866 8.8138-4.1096 2.5553-1.6721 5.1768-3.2397 7.7429-4.8952 1.9874-1.3212 3.9655-2.658 5.8187-4.1652 1.1787-0.95859 1.884-1.6134 3.0193-2.6277 2.8816-2.621 5.7076-5.2996 8.4778-8.0378 0.0972-0.09628 0.19078-0.19595 0.28767-0.2925-2.714 1.3549-2.7396-0.52739 1.2933-5.4053 58.476-70.603 1.7095-115.62-48.897-113.04z" fill="#ffc0cb" stroke-width="4.0494"/></g><path d="m110.8 67.549v-6.9159h-39.159v6.9159z" fill="#ee82ee" stroke="#ee82ee" stroke-linecap="round" stroke-linejoin="round" stroke-width="2.9323" style="paint-order:stroke fill markers"/></g><path d="m85.953 38.885c0 1.1565-0.18037 2.1804-0.54112 3.0716-0.36074 0.89125-0.88594 1.6446-1.5756 2.26-0.68966 0.60478-1.5385 1.0663-2.5464 1.3846-0.99735 0.3183-2.1751 0.47746-3.5332 0.47746h-1.7188v6.573c0 0.1061-0.03715 0.20159-0.1114 0.28647-0.06367 0.08489-0.17507 0.15385-0.33422 0.2069-0.15915 0.05304-0.37135 0.0955-0.63661 0.12732-0.26525 0.03182-0.60478 0.04774-1.0186 0.04774-0.40318 0-0.74271-0.01584-1.0186-0.04774-0.26525-0.03182-0.47745-0.07428-0.63661-0.12732-0.15915-0.05304-0.27056-0.12201-0.33422-0.2069-0.06367-0.08489-0.0955-0.18037-0.0955-0.28647v-18.525c0-0.49868 0.12732-0.87003 0.38196-1.1141 0.26525-0.25464 0.61008-0.38196 1.0345-0.38196h4.8541c0.48806 0 0.94961 0.02122 1.3846 0.06365 0.44562 0.03182 0.97613 0.11141 1.5915 0.23873 0.61539 0.11671 1.2361 0.33952 1.8621 0.66844 0.63661 0.32891 1.1777 0.74801 1.6233 1.2573 0.44563 0.49868 0.78515 1.0875 1.0186 1.7666 0.23342 0.66844 0.35013 1.4218 0.35013 2.26zm-4.3767 0.30239c0-0.72149-0.12732-1.3157-0.38196-1.7825-0.25464-0.46685-0.56764-0.81167-0.93899-1.0345-0.37136-0.22281-0.76393-0.36074-1.1777-0.41379-0.40318-0.06367-0.82228-0.0955-1.2573-0.0955h-1.7825v6.9868h1.878c0.66844 0 1.2255-0.09019 1.6711-0.27056 0.45623-0.18037 0.82759-0.42971 1.1141-0.74801 0.28647-0.32891 0.50398-0.71618 0.65252-1.1618 0.14854-0.45623 0.22281-0.9496 0.22281-1.4801zm24.605 12.573c0 0.24403-0.0424 0.46154-0.12732 0.65252-0.0849 0.19098-0.2016 0.35013-0.35014 0.47746-0.13793 0.12732-0.30769 0.22281-0.50929 0.28647-0.19098 0.05304-0.38726 0.07958-0.58886 0.07958h-1.7825c-0.37136 0-0.69497-0.03715-0.97083-0.11141-0.26525-0.07427-0.51459-0.20689-0.74801-0.39788-0.22282-0.20159-0.44032-0.46684-0.65253-0.79575-0.2122-0.33952-0.45093-0.77454-0.71618-1.305l-5.1247-9.6287c-0.29708-0.57295-0.59947-1.1883-0.90716-1.8462-0.30769-0.66844-0.58356-1.3157-0.82759-1.9417h-0.03182c0.04243 0.76393 0.07426 1.5279 0.09549 2.2918 0.02122 0.75332 0.03183 1.5332 0.03183 2.3395v10.775c0 0.1061-0.03183 0.20159-0.0955 0.28647-0.05304 0.08489-0.15385 0.15915-0.30239 0.22281-0.13793 0.05304-0.32892 0.0955-0.57295 0.12732-0.24403 0.03182-0.55703 0.04774-0.939 0.04774-0.37136 0-0.67905-0.01584-0.92308-0.04774-0.24403-0.03182-0.43502-0.07428-0.57295-0.12732-0.13793-0.06367-0.23342-0.13793-0.28647-0.22281-0.05304-0.08489-0.07958-0.18037-0.07958-0.28647v-18.509c0-0.49868 0.14324-0.87003 0.42971-1.1141 0.29708-0.25464 0.65783-0.38196 1.0822-0.38196h2.244c0.40318 0 0.74271 0.03715 1.0186 0.1114 0.27586 0.06367 0.5199 0.17507 0.7321 0.33422 0.22281 0.15915 0.42971 0.38196 0.62069 0.66844 0.19098 0.27586 0.38727 0.62069 0.58886 1.0345l4.0106 7.5279c0.23342 0.45623 0.46154 0.90716 0.68435 1.3528 0.23343 0.43501 0.45624 0.87533 0.66844 1.321 0.2122 0.43502 0.4191 0.86472 0.62069 1.2891 0.2016 0.4244 0.39788 0.84881 0.58886 1.2732h0.0158c-0.0318-0.74271-0.0584-1.5172-0.0796-2.3236-0.0105-0.80637-0.0158-1.5756-0.0158-2.3077v-9.6605c0-0.1061 0.0318-0.20159 0.0955-0.28647 0.0637-0.08489 0.16976-0.15915 0.3183-0.22281 0.14854-0.06367 0.34483-0.1061 0.58886-0.12732 0.24403-0.03182 0.55703-0.04774 0.939-0.04774 0.36074 0 0.66313 0.01584 0.90716 0.04774 0.24403 0.02122 0.42971 0.06365 0.55703 0.12732 0.13794 0.06367 0.23343 0.13793 0.28648 0.22281 0.053 0.08489 0.0796 0.18037 0.0796 0.28647zm21.008-15.931c0 0.30769-0.0158 0.57295-0.0477 0.79576-0.0212 0.22281-0.0584 0.40318-0.1114 0.54112-0.0424 0.12732-0.10078 0.21751-0.17507 0.27056-0.0637 0.05304-0.14324 0.07958-0.23872 0.07958-0.13793 0-0.36075-0.0955-0.66844-0.28648-0.3077-0.19098-0.71618-0.39788-1.2255-0.62069-0.50928-0.22281-1.1194-0.42971-1.8302-0.62069-0.70027-0.19098-1.5172-0.28647-2.4509-0.28647-0.99735 0-1.8992 0.17507-2.7056 0.5252-0.80637 0.33952-1.496 0.82759-2.069 1.4642-0.57295 0.626-1.0133 1.3846-1.321 2.2759-0.30769 0.88064-0.46154 1.8568-0.46154 2.9284 0 1.1777 0.15385 2.2175 0.46154 3.1194 0.3183 0.89125 0.75862 1.6393 1.321 2.244 0.56233 0.60478 1.2361 1.061 2.0212 1.3687 0.79575 0.30769 1.6711 0.46154 2.626 0.46154 0.46684 0 0.92838-0.05304 1.3846-0.15915 0.45623-0.1061 0.88064-0.26525 1.2732-0.47746v-4.7745h-3.8992c-0.19099 0-0.33953-0.11671-0.44563-0.35014-0.1061-0.24403-0.15915-0.65252-0.15915-1.2255 0-0.29708 0.0105-0.54642 0.0318-0.74801 0.0318-0.20159 0.0743-0.36074 0.12732-0.47746 0.053-0.12732 0.11671-0.21751 0.19098-0.27056 0.0743-0.06367 0.15915-0.09549 0.25464-0.09549h6.9549c0.16976 0 0.31831 0.03182 0.44563 0.09549 0.13793 0.05304 0.25464 0.13793 0.35013 0.25464 0.1061 0.11671 0.18567 0.25995 0.23873 0.42971 0.053 0.15915 0.0796 0.34483 0.0796 0.55703v8.1963c0 0.3183-0.0584 0.59947-0.17507 0.8435-0.1061 0.23342-0.33422 0.4191-0.68435 0.55703-0.33953 0.13793-0.76393 0.28117-1.2732 0.42971-0.50928 0.14854-1.0398 0.27586-1.5915 0.38196-0.54112 0.1061-1.0928 0.18567-1.6552 0.23873-0.55173 0.05304-1.1088 0.07958-1.6711 0.07958-1.6446 0-3.1194-0.23342-4.4244-0.70027-1.2944-0.47746-2.3926-1.1618-3.2944-2.0531-0.90186-0.90186-1.5915-1.9947-2.069-3.2785-0.47745-1.2944-0.71618-2.7586-0.71618-4.3926 0-1.687 0.25464-3.1989 0.76393-4.5358 0.50928-1.3475 1.2308-2.4881 2.1645-3.4218 0.93369-0.9443 2.0584-1.6658 3.374-2.1645 1.3263-0.49867 2.8011-0.74801 4.4244-0.74801 0.89125 0 1.7029 0.06365 2.435 0.19098 0.7321 0.11671 1.3687 0.26525 1.9098 0.44562 0.55173 0.16976 1.008 0.35544 1.3687 0.55703 0.36075 0.20159 0.61009 0.37666 0.74802 0.5252 0.14853 0.14854 0.25464 0.36074 0.3183 0.63661 0.0637 0.26525 0.0955 0.66313 0.0955 1.1936z" fill="#ee82ee" stroke="#ee82ee" stroke-linecap="round" stroke-linejoin="round" stroke-width="3.3608" style="paint-order:stroke fill markers" aria-label="PNG"/></g></g></svg>
