<svg width="104.4mm" height="99.49mm" version="1.1" viewBox="0 0 104.4 99.49" xml:space="preserve" xmlns="http://www.w3.org/2000/svg"><g transform="translate(-37.993 -32.148)"><text x="100.95578" y="164.45357" fill="#0000ff" font-family="Calibri" font-size="68.994px" font-weight="bold" stroke="#000000" stroke-linecap="round" stroke-linejoin="round" stroke-width="7.114" style="paint-order:stroke fill markers" xml:space="preserve"><tspan x="100.95578" y="164.45357" font-family="'Wingdings 3'" font-weight="normal" stroke-width="7.114"/></text><g><text x="87.698196" y="98.03083" fill="#0000ff" font-family="'Wingdings 3'" font-size="19.756px" stroke-linecap="round" stroke-linejoin="round" stroke-width="2.037" style="paint-order:stroke fill markers" xml:space="preserve"><tspan x="87.698196" y="98.03083" stroke-width="2.037"/></text><path d="m122.61 105.74v-6.5045h-13.009v6.5045z" fill="#34d399" stroke="#34d399" stroke-linecap="round" stroke-linejoin="round" stroke-width="2.7579" style="paint-order:stroke fill markers"/><g transform="matrix(.27888 0 0 .27888 72.144 87.435)" fill="#f472b6"><path d="m142.45 27.332c157.11 46.427 107.35-205.65-19.377-99.252-6.2402 5.244-8.273 4.1142-2.7455-2.5714 103.96-125.52-156.31-170.17-98.677-10.298 1.3525 3.7498 0.0567 4.2317-2.0936 0.64791-89.983-150.31-218.82 94.964-44.617 87.27 7.3214-0.32396 7.7668 1.393 0.7046 3.0209-165.99 38.421 45.289 228.87 71.813 69.934 1.2391-7.4024 2.2312-6.2888 2.4945 1.6603 5.0699 149.63 224.07 24.131 91.623-47.383-7.9491-4.3005-7.8033-5.6004 0.87468-3.029zm-46.399-27.212c-8.6172-1.2958-11.428 3.3691-6.2604 10.383 5.163 7.0055 6.0377 15.226 1.9356 18.255-4.1021 3.029-11.707-0.22272-16.874-7.2283-5.1671-7.0055-10.468-5.7016-11.768 2.9116-1.2918 8.6132-6.4953 15.044-11.545 14.274-5.0496-0.7613-8.1191-8.431-6.8233-17.044s-3.3732-11.428-10.375-6.2564c-7.0055 5.1711-15.226 6.0418-18.259 1.9316-3.033-4.1061 0.22272-11.699 7.2283-16.87 7.0015-5.1711 5.6935-10.472-2.9237-11.768-8.6132-1.2958-15.036-6.4953-14.266-11.549 0.7613-5.0456 8.4309-8.1151 17.048-6.8193 8.6132 1.2958 11.423-3.3691 6.2564-10.379-5.1711-7.0136-6.0377-15.226-1.9356-18.263 4.1142-3.029 11.707 0.22272 16.874 7.2364 5.1671 7.0055 10.464 5.6935 11.76-2.9196 1.2999-8.6132 6.4953-15.036 11.549-14.274 5.0537 0.7613 8.1232 8.431 6.8233 17.044-1.2958 8.6132 3.3732 11.428 10.379 6.2564 7.0015-5.1711 15.23-6.0418 18.255-1.9316 3.033 4.1142-0.22272 11.707-7.2242 16.878-7.0055 5.163-5.6976 10.464 2.9156 11.76 8.6172 1.2958 15.04 6.4953 14.274 11.549-0.76534 5.0537-8.4309 8.1191-17.044 6.8233z" fill="#f472b6"/></g><path d="m101.11 102.06-16.261-16.261v13.009h-21.667l13.106-39.327h13.009v-6.5045h-19.469l-17.602 52.336h32.624v13.009zm20.568-26.018v-6.5045h-36.829v6.5045z" fill="#34d399" stroke="#34d399" stroke-linecap="round" stroke-linejoin="round" stroke-width="2.7579" style="paint-order:stroke fill markers" aria-label="C"/><g transform="matrix(.27888 0 0 .27888 72.144 87.435)" fill="#f472b6"><path d="m71.435-187.53c-38.813 1.9768-73.862 32.045-50.656 99.945 0.10331 0.19395 0.18968 0.42264 0.23932 0.70588 7e-3 0.03975 0.01016 0.07297 0.01692 0.1112 0.23657 0.68127 0.37053 1.2958 0.61885 1.9847 0.83391 2.312 0.58993 3.2049-0.16922 2.8453 0.11609 1.3507 0.15232 1.6618 0.34569 3.2852 0.33369 3.0819 1.1778 6.0527 2.1587 8.9806 0.7657 2.0965 1.5621 4.2004 2.6615 6.1498 0.23665 0.4196 0.49801 0.8253 0.74697 1.2377 0.67345 1.0592 1.3992 2.0822 2.1491 3.087 4.2724-1.0445 10.418 2.1609 14.821 8.1369 5.1671 7.0055 10.465 5.693 11.761-2.9202 1.2999-8.6132 6.4942-15.036 11.548-14.275 5.0537 0.7613 8.1242 8.4319 6.8243 17.045-1.2958 8.6132 3.3723 11.427 10.378 6.2562 2.8846-2.1305 5.9624-3.4866 8.8138-4.1096 2.5553-1.6721 5.1768-3.2397 7.7429-4.8952 1.9874-1.3212 3.9655-2.658 5.8187-4.1652 1.1787-0.95859 1.884-1.6134 3.0193-2.6277 2.8816-2.621 5.7076-5.2996 8.4778-8.0378 0.0972-0.09628 0.19078-0.19595 0.28767-0.2925-2.714 1.3549-2.7396-0.52739 1.2933-5.4053 58.476-70.603 1.7095-115.62-48.897-113.04z" fill="#f472b6" stroke-width="4.0494"/></g><path d="m121.57 76.03v-6.5045h-36.829v6.5045z" fill="#34d399" stroke="#34d399" stroke-linecap="round" stroke-linejoin="round" stroke-width="2.7579" style="paint-order:stroke fill markers"/><path d="m98.207 49.072c0 1.0877-0.16964 2.0507-0.50893 2.8889-0.33928 0.83823-0.83324 1.5467-1.4819 2.1255-0.64863 0.5688-1.4469 1.0029-2.3949 1.3023-0.93802 0.29937-2.0457 0.44905-3.323 0.44905h-1.6166v6.182c0 0.09979-0.03494 0.1896-0.10477 0.26943-0.05988 0.07984-0.16466 0.1447-0.31434 0.19459-0.14968 0.04989-0.34926 0.08982-0.59874 0.11975-0.24947 0.02993-0.5688 0.0449-0.95798 0.0449-0.3792 0-0.69852-0.0149-0.95798-0.0449-0.24947-0.02993-0.44905-0.06986-0.59874-0.11975-0.14968-0.04988-0.25446-0.11475-0.31434-0.19459-0.05988-0.07984-0.08982-0.16964-0.08982-0.26943v-17.423c0-0.46901 0.11975-0.81827 0.35924-1.0478 0.24947-0.2395 0.57379-0.35924 0.97295-0.35924h4.5654c0.45903 0 0.89312 0.01996 1.3023 0.05986 0.41912 0.02993 0.91806 0.10478 1.4968 0.22453 0.57878 0.10977 1.1625 0.31933 1.7513 0.62868 0.59874 0.30935 1.1077 0.70351 1.5268 1.1825 0.41912 0.46901 0.73844 1.0228 0.95798 1.6615 0.21954 0.62868 0.3293 1.3372 0.3293 2.1255zm-4.1163 0.2844c0-0.67857-0.11975-1.2374-0.35924-1.6765-0.2395-0.43908-0.53387-0.76339-0.88314-0.97295-0.34926-0.20956-0.71849-0.33928-1.1077-0.38918-0.3792-0.05988-0.77337-0.08982-1.1825-0.08982h-1.6765v6.5711h1.7663c0.62867 0 1.1526-0.08483 1.5717-0.25446 0.42909-0.16964 0.77836-0.40415 1.0478-0.70352 0.26943-0.30935 0.474-0.67358 0.61371-1.0927 0.1397-0.42909 0.20956-0.89312 0.20956-1.3921zm23.141 11.825c0 0.22952-0.0399 0.43408-0.11974 0.6137-0.0798 0.17962-0.18961 0.3293-0.32931 0.44905-0.12973 0.11975-0.28939 0.20956-0.479 0.26943-0.17962 0.04989-0.36422 0.07485-0.55383 0.07485h-1.6764c-0.34927 0-0.65363-0.03494-0.91308-0.10478-0.24947-0.06985-0.48398-0.19459-0.70351-0.37421-0.20957-0.1896-0.41413-0.43907-0.61372-0.74842-0.19957-0.31932-0.4241-0.72846-0.67357-1.2274l-4.8198-9.0559c-0.27941-0.53886-0.56381-1.1176-0.8532-1.7363-0.28939-0.62867-0.54884-1.2374-0.77836-1.8261h-0.0299c0.0399 0.71848 0.0699 1.437 0.0898 2.1555 0.02 0.70851 0.0299 1.442 0.0299 2.2004v10.134c0 0.09979-0.0299 0.1896-0.0898 0.26943-0.0499 0.07984-0.1447 0.14968-0.2844 0.20956-0.12973 0.04989-0.30935 0.08982-0.53886 0.11975-0.22952 0.02993-0.5239 0.0449-0.88314 0.0449-0.34926 0-0.63865-0.0149-0.86817-0.0449-0.22951-0.02993-0.40913-0.06986-0.53886-0.11975-0.12973-0.05988-0.21954-0.12973-0.26943-0.20956-0.0499-0.07984-0.0748-0.16964-0.0748-0.26943v-17.408c0-0.46901 0.13472-0.81827 0.40415-1.0478 0.27941-0.2395 0.61869-0.35924 1.0178-0.35924h2.1106c0.3792 0 0.69852 0.03494 0.95798 0.10477 0.25945 0.05988 0.48896 0.16466 0.68854 0.31434 0.20956 0.14968 0.40415 0.35924 0.58377 0.62867 0.17962 0.25945 0.36423 0.58377 0.55383 0.97295l3.772 7.0801c0.21953 0.42909 0.43408 0.8532 0.64364 1.2723 0.21954 0.40914 0.4291 0.82326 0.62867 1.2424 0.19958 0.40914 0.39417 0.81328 0.58377 1.2124 0.18961 0.39916 0.37421 0.79832 0.55383 1.1975h0.0149c-0.0299-0.69853-0.0549-1.427-0.0749-2.1854-0.01-0.7584-0.0149-1.4819-0.0149-2.1704v-9.0858c0-0.09979 0.0299-0.1896 0.0898-0.26943 0.0599-0.07984 0.15966-0.14968 0.29937-0.20956 0.1397-0.05988 0.32432-0.09979 0.55383-0.11975 0.22951-0.02993 0.52389-0.0449 0.88314-0.0449 0.33928 0 0.62368 0.0149 0.8532 0.0449 0.22951 0.01996 0.40414 0.05986 0.52389 0.11975 0.12973 0.05988 0.21954 0.12973 0.26944 0.20956 0.0498 0.07984 0.0749 0.16964 0.0749 0.26943zm19.758-14.983c0 0.28939-0.0149 0.53886-0.0449 0.74842-0.0199 0.20956-0.0549 0.3792-0.10478 0.50892-0.0399 0.11975-0.0948 0.20457-0.16465 0.25446-0.0599 0.04988-0.13472 0.07485-0.22452 0.07485-0.12973 0-0.33929-0.08982-0.62868-0.26943-0.28939-0.17962-0.67357-0.37421-1.1526-0.58377-0.47898-0.20956-1.0528-0.40415-1.7214-0.58377-0.65861-0.17962-1.427-0.26943-2.3051-0.26943-0.93802 0-1.7862 0.16465-2.5446 0.49396-0.7584 0.31932-1.407 0.77836-1.9459 1.3771-0.53886 0.58876-0.95299 1.3023-1.2424 2.1405-0.28939 0.82825-0.43409 1.7463-0.43409 2.7542 0 1.1077 0.1447 2.0856 0.43409 2.9338 0.29936 0.83823 0.71349 1.5417 1.2424 2.1105s1.1626 0.99789 1.901 1.2873c0.74841 0.28939 1.5717 0.43408 2.4698 0.43408 0.43907 0 0.87316-0.04989 1.3023-0.14968 0.42909-0.09979 0.82825-0.24947 1.1975-0.44905v-4.4905h-3.6673c-0.17963 0-0.31933-0.10977-0.41912-0.32931-0.0998-0.22951-0.14968-0.6137-0.14968-1.1526 0-0.27941 0.01-0.51392 0.0299-0.70352 0.0299-0.1896 0.0699-0.33928 0.11975-0.44905 0.0498-0.11975 0.10977-0.20457 0.17962-0.25446 0.0699-0.05988 0.14968-0.08981 0.23949-0.08981h6.5412c0.15966 0 0.29938 0.02993 0.41912 0.08981 0.12973 0.04988 0.23949 0.12972 0.3293 0.2395 0.0998 0.10977 0.17463 0.24448 0.22453 0.40415 0.0498 0.14968 0.0749 0.32432 0.0749 0.5239v7.7087c0 0.29937-0.0549 0.56381-0.16466 0.79333-0.0998 0.21954-0.31434 0.39417-0.64364 0.5239-0.31933 0.12973-0.71848 0.26444-1.1975 0.40415-0.47898 0.1397-0.97793 0.25945-1.4968 0.35924-0.50893 0.09979-1.0278 0.17463-1.5567 0.22453-0.51891 0.04988-1.0428 0.07485-1.5717 0.07485-1.5467 0-2.9338-0.21954-4.1612-0.65861-1.2174-0.44905-2.2503-1.0927-3.0985-1.9309-0.84821-0.84821-1.4968-1.876-1.9459-3.0835-0.44905-1.2174-0.67357-2.5945-0.67357-4.1313 0-1.5867 0.23949-3.0087 0.71848-4.266 0.47899-1.2673 1.1576-2.3401 2.0357-3.2182 0.87815-0.88812 1.9359-1.5667 3.1733-2.0357 1.2474-0.46901 2.6344-0.70352 4.1612-0.70352 0.83824 0 1.6016 0.05986 2.2902 0.17962 0.68855 0.10977 1.2873 0.24947 1.7962 0.41912 0.51891 0.15966 0.948 0.3343 1.2873 0.5239 0.33929 0.1896 0.5738 0.35425 0.70352 0.49396 0.1397 0.1397 0.23949 0.33928 0.29937 0.59874 0.0599 0.24947 0.0898 0.62368 0.0898 1.1226z" fill="#34d399" stroke="#34d399" stroke-linecap="round" stroke-linejoin="round" stroke-width="3.1609" style="paint-order:stroke fill markers" aria-label="PNG"/></g></g></svg>
