<svg width="129.09mm" height="93.571mm" version="1.1" viewBox="0 0 129.09 93.571" xml:space="preserve" xmlns="http://www.w3.org/2000/svg"><g transform="translate(-41.098 -35.107)"><text x="100.95578" y="164.45357" fill="#0000ff" font-family="Calibri" font-size="68.994px" font-weight="bold" stroke="#000000" stroke-linecap="round" stroke-linejoin="round" stroke-width="7.114" style="paint-order:stroke fill markers" xml:space="preserve"><tspan x="100.95578" y="164.45357" font-family="'Wingdings 3'" font-weight="normal" stroke-width="7.114"/></text><g><text x="87.698196" y="98.03083" fill="#0000ff" font-family="'Wingdings 3'" font-size="19.756px" stroke-linecap="round" stroke-linejoin="round" stroke-width="2.037" style="paint-order:stroke fill markers" xml:space="preserve"><tspan x="87.698196" y="98.03083" stroke-width="2.037"/></text><path d="m122.61 105.74v-6.5045h-13.009v6.5045z" fill="#fda4af" stroke="#fda4af" stroke-linecap="round" stroke-linejoin="round" stroke-width="2.7579" style="paint-order:stroke fill markers"/><g transform="matrix(.27888 0 0 .27888 72.144 87.435)" fill="#fb7185"><path d="m142.45 27.332c157.11 46.427 107.35-205.65-19.377-99.252-6.2402 5.244-8.273 4.1142-2.7455-2.5714 103.96-125.52-156.31-170.17-98.677-10.298 1.3525 3.7498 0.0567 4.2317-2.0936 0.64791-89.983-150.31-218.82 94.964-44.617 87.27 7.3214-0.32396 7.7668 1.393 0.7046 3.0209-165.99 38.421 45.289 228.87 71.813 69.934 1.2391-7.4024 2.2312-6.2888 2.4945 1.6603 5.0699 149.63 224.07 24.131 91.623-47.383-7.9491-4.3005-7.8033-5.6004 0.87468-3.029zm-46.399-27.212c-8.6172-1.2958-11.428 3.3691-6.2604 10.383 5.163 7.0055 6.0377 15.226 1.9356 18.255-4.1021 3.029-11.707-0.22272-16.874-7.2283-5.1671-7.0055-10.468-5.7016-11.768 2.9116-1.2918 8.6132-6.4953 15.044-11.545 14.274-5.0496-0.7613-8.1191-8.431-6.8233-17.044s-3.3732-11.428-10.375-6.2564c-7.0055 5.1711-15.226 6.0418-18.259 1.9316-3.033-4.1061 0.22272-11.699 7.2283-16.87 7.0015-5.1711 5.6935-10.472-2.9237-11.768-8.6132-1.2958-15.036-6.4953-14.266-11.549 0.7613-5.0456 8.4309-8.1151 17.048-6.8193 8.6132 1.2958 11.423-3.3691 6.2564-10.379-5.1711-7.0136-6.0377-15.226-1.9356-18.263 4.1142-3.029 11.707 0.22272 16.874 7.2364 5.1671 7.0055 10.464 5.6935 11.76-2.9196 1.2999-8.6132 6.4953-15.036 11.549-14.274 5.0537 0.7613 8.1232 8.431 6.8233 17.044-1.2958 8.6132 3.3732 11.428 10.379 6.2564 7.0015-5.1711 15.23-6.0418 18.255-1.9316 3.033 4.1142-0.22272 11.707-7.2242 16.878-7.0055 5.163-5.6976 10.464 2.9156 11.76 8.6172 1.2958 15.04 6.4953 14.274 11.549-0.76534 5.0537-8.4309 8.1191-17.044 6.8233z" fill="#fb7185"/></g><path d="m101.11 102.06-16.261-16.261v13.009h-21.667l13.106-39.327h13.009v-6.5045h-19.469l-17.602 52.336h32.624v13.009zm20.568-26.018v-6.5045h-36.829v6.5045z" fill="#fda4af" stroke="#fda4af" stroke-linecap="round" stroke-linejoin="round" stroke-width="2.7579" style="paint-order:stroke fill markers" aria-label="C"/><g transform="matrix(.27888 0 0 .27888 72.144 87.435)" fill="#fb7185"><path d="m71.435-187.53c-38.813 1.9768-73.862 32.045-50.656 99.945 0.10331 0.19395 0.18968 0.42264 0.23932 0.70588 7e-3 0.03975 0.01016 0.07297 0.01692 0.1112 0.23657 0.68127 0.37053 1.2958 0.61885 1.9847 0.83391 2.312 0.58993 3.2049-0.16922 2.8453 0.11609 1.3507 0.15232 1.6618 0.34569 3.2852 0.33369 3.0819 1.1778 6.0527 2.1587 8.9806 0.7657 2.0965 1.5621 4.2004 2.6615 6.1498 0.23665 0.4196 0.49801 0.8253 0.74697 1.2377 0.67345 1.0592 1.3992 2.0822 2.1491 3.087 4.2724-1.0445 10.418 2.1609 14.821 8.1369 5.1671 7.0055 10.465 5.693 11.761-2.9202 1.2999-8.6132 6.4942-15.036 11.548-14.275 5.0537 0.7613 8.1242 8.4319 6.8243 17.045-1.2958 8.6132 3.3723 11.427 10.378 6.2562 2.8846-2.1305 5.9624-3.4866 8.8138-4.1096 2.5553-1.6721 5.1768-3.2397 7.7429-4.8952 1.9874-1.3212 3.9655-2.658 5.8187-4.1652 1.1787-0.95859 1.884-1.6134 3.0193-2.6277 2.8816-2.621 5.7076-5.2996 8.4778-8.0378 0.0972-0.09628 0.19078-0.19595 0.28767-0.2925-2.714 1.3549-2.7396-0.52739 1.2933-5.4053 58.476-70.603 1.7095-115.62-48.897-113.04z" fill="#fb7185" stroke-width="4.0494"/></g><path d="m121.57 76.03v-6.5045h-36.829v6.5045z" fill="#fda4af" stroke="#fda4af" stroke-linecap="round" stroke-linejoin="round" stroke-width="2.7579" style="paint-order:stroke fill markers"/></g><path d="m101.7 45.682q0 1.9858-0.61943 3.5162-0.61943 1.5304-1.8036 2.587-1.1842 1.0385-2.915 1.585-1.7125 0.54656-4.0445 0.54656h-1.9676v7.5243q0 0.18219-0.12753 0.32793-0.10931 0.14575-0.38259 0.23684-0.27328 0.09109-0.72874 0.14575-0.45546 0.05465-1.166 0.05465-0.69231 0-1.166-0.05465-0.45546-0.054656-0.72874-0.14575-0.27328-0.091092-0.38259-0.23684-0.10931-0.14575-0.10931-0.32793v-21.206q0-0.85627 0.43724-1.2753 0.45546-0.43724 1.1842-0.43724h5.5567q0.83805 0 1.585 0.07287 0.76518 0.05466 1.8219 0.27328 1.0567 0.2004 2.1316 0.76518 1.0931 0.56478 1.8583 1.4393 0.76518 0.85627 1.166 2.0223 0.40081 1.1478 0.40081 2.587zm-5.0101 0.34615q0-1.2389-0.43725-2.0405-0.43724-0.80162-1.0749-1.1842-0.63765-0.38259-1.3482-0.47368-0.6923-0.10931-1.4393-0.10931h-2.0405v7.9979h2.1498q1.1478 0 1.9129-0.30972 0.7834-0.30972 1.2753-0.85627 0.4919-0.56478 0.74696-1.33 0.25506-0.7834 0.25506-1.6943zm27.965 7.2874q0 2.168-0.63765 3.8806t-1.8765 2.8968-3.0607 1.8036-4.1903 0.61943q-2.2227 0-3.9899-0.54656-1.7672-0.56478-2.9878-1.6943-1.2206-1.1296-1.8765-2.8057-0.63764-1.6943-0.63764-3.9534v-14.338q0-0.18218 0.10931-0.32793 0.10931-0.14575 0.38259-0.23684 0.29149-0.09109 0.74696-0.14575 0.45546-0.05466 1.166-0.05466 0.69231 0 1.1478 0.05466 0.45547 0.05466 0.72875 0.14575 0.27327 0.09109 0.38259 0.23684 0.12753 0.14575 0.12753 0.32793v13.919q0 1.4028 0.34615 2.4413 0.34615 1.0202 0.9838 1.6943 0.65587 0.67409 1.5486 1.0202 0.91092 0.32793 2.0223 0.32793 1.1296 0 2.0223-0.34615 0.8927-0.34615 1.5121-1.002 0.61943-0.67409 0.94736-1.6397 0.34615-0.9838 0.34615-2.2227v-14.192q0-0.18218 0.10931-0.32793 0.10932-0.14575 0.38259-0.23684 0.27328-0.09109 0.72875-0.14575 0.47368-0.05466 1.166-0.05466 0.69231 0 1.1296 0.05466 0.45547 0.05466 0.72875 0.14575 0.27327 0.09109 0.38259 0.23684 0.10931 0.14575 0.10931 0.32793zm22.609 8.1619q0 0.2004-0.0729 0.34615-0.0729 0.12753-0.34615 0.21862-0.27328 0.09109-0.80162 0.12753t-1.4393 0.03644q-0.76518 0-1.2206-0.03644t-0.72874-0.12753q-0.25506-0.10931-0.36437-0.25506-0.10931-0.16397-0.18219-0.38259l-2.1134-5.2652q-0.38259-0.89271-0.74696-1.585-0.36437-0.69231-0.81984-1.1478-0.43724-0.47368-1.0202-0.71052-0.58299-0.23684-1.3482-0.23684h-1.4939v8.9817q0 0.18219-0.12753 0.32793-0.10931 0.14575-0.38259 0.23684-0.27328 0.09109-0.72874 0.14575-0.45547 0.05465-1.166 0.05465-0.6923 0-1.166-0.05465-0.45546-0.05466-0.72874-0.14575-0.27328-0.09109-0.38259-0.23684-0.10931-0.14575-0.10931-0.32793v-21.407q0-0.80162 0.40081-1.1478 0.41902-0.36437 1.0202-0.36437h6.1032q0.92915 0 1.5304 0.03644t1.0931 0.09109q1.421 0.2004 2.5506 0.6923 1.1478 0.4919 1.9312 1.2935 0.80162 0.7834 1.2206 1.8765 0.41903 1.0749 0.41903 2.4777 0 1.1842-0.30972 2.168-0.29149 0.96558-0.87449 1.7308-0.58299 0.76518-1.4393 1.33-0.85628 0.56478-1.9494 0.91093 0.52834 0.25506 0.9838 0.61943 0.47369 0.36437 0.87449 0.89271 0.41903 0.51012 0.7834 1.1842 0.36437 0.65587 0.71053 1.4939l1.9858 4.6457q0.27328 0.6923 0.36437 1.0202 0.0911 0.30972 0.0911 0.4919zm-6.1761-15.996q0-1.166-0.52834-1.9676-0.52833-0.80162-1.7308-1.1296-0.36437-0.09109-0.83805-0.14575-0.45547-0.05466-1.2753-0.05466h-2.1498v6.6862h2.4413q1.0202 0 1.7854-0.23684 0.76518-0.25506 1.2753-0.6923 0.51012-0.45546 0.76518-1.0749 0.25506-0.61943 0.25506-1.3846zm27.182 15.996q0 0.2004-0.0729 0.34615-0.0729 0.12753-0.34615 0.21862-0.27328 0.09109-0.80161 0.12753-0.52834 0.03644-1.4393 0.03644-0.76518 0-1.2206-0.03644-0.45547-0.03644-0.72875-0.12753-0.25506-0.10931-0.36437-0.25506-0.10931-0.16397-0.18218-0.38259l-2.1134-5.2652q-0.38259-0.89271-0.74697-1.585-0.36437-0.69231-0.81983-1.1478-0.43725-0.47368-1.0202-0.71052t-1.3482-0.23684h-1.4939v8.9817q0 0.18219-0.12753 0.32793-0.10932 0.14575-0.38259 0.23684-0.27328 0.09109-0.72875 0.14575-0.45546 0.05465-1.166 0.05465-0.69231 0-1.166-0.05465-0.45546-0.05466-0.72874-0.14575-0.27328-0.09109-0.38259-0.23684-0.10931-0.14575-0.10931-0.32793v-21.407q0-0.80162 0.4008-1.1478 0.41903-0.36437 1.0202-0.36437h6.1032q0.92915 0 1.5304 0.03644t1.0931 0.09109q1.421 0.2004 2.5506 0.6923 1.1478 0.4919 1.9312 1.2935 0.80161 0.7834 1.2206 1.8765 0.41903 1.0749 0.41903 2.4777 0 1.1842-0.30972 2.168-0.2915 0.96558-0.87449 1.7308t-1.4393 1.33q-0.85627 0.56478-1.9494 0.91093 0.52834 0.25506 0.9838 0.61943 0.47368 0.36437 0.87449 0.89271 0.41903 0.51012 0.7834 1.1842 0.36437 0.65587 0.71052 1.4939l1.9858 4.6457q0.27328 0.6923 0.36438 1.0202 0.0911 0.30972 0.0911 0.4919zm-6.1761-15.996q0-1.166-0.52834-1.9676-0.52834-0.80162-1.7308-1.1296-0.36437-0.09109-0.83806-0.14575-0.45546-0.05466-1.2753-0.05466h-2.1498v6.6862h2.4413q1.0202 0 1.7854-0.23684 0.76518-0.25506 1.2753-0.6923 0.51012-0.45546 0.76518-1.0749 0.25506-0.61943 0.25506-1.3846z" fill="#991b1b" stroke="#991b1b" stroke-linecap="round" stroke-linejoin="round" stroke-width="3.8472" style="paint-order:stroke fill markers" aria-label="PURR"/></g></svg>
