<?xml version="1.0" standalone="no"?>
<!DOCTYPE svg PUBLIC "-//W3C//DTD SVG 20010904//EN"
 "http://www.w3.org/TR/2001/REC-SVG-20010904/DTD/svg10.dtd">
<svg version="1.0" xmlns="http://www.w3.org/2000/svg"
 width="790.000000pt" height="790.000000pt" viewBox="0 0 790.000000 790.000000"
 preserveAspectRatio="xMidYMid meet">
<metadata>
Created by potrace 1.14, written by Peter Selinger 2001-2017
</metadata>
<g transform="translate(0.000000,790.000000) scale(0.100000,-0.100000)"
fill="#000000" stroke="none">
<path d="M3965 7472 c-44 -7 -87 -14 -95 -14 -19 0 -188 -46 -215 -57 -11 -5
-51 -22 -90 -37 -38 -16 -71 -32 -73 -36 -2 -5 -8 -8 -13 -8 -13 0 -107 -59
-169 -106 -66 -50 -127 -109 -177 -172 -21 -26 -40 -49 -43 -52 -13 -12 -70
-108 -70 -118 0 -5 -4 -12 -8 -14 -7 -3 -57 -116 -81 -183 -19 -55 -40 -147
-46 -205 -2 -19 -7 -47 -10 -62 -3 -14 -7 -56 -9 -93 -2 -36 -6 -69 -9 -72 -4
-3 -112 -6 -242 -6 -130 0 -238 -4 -241 -9 -3 -4 -9 -6 -14 -3 -11 7 -47 -43
-55 -78 -10 -38 -17 -39 -56 -13 -107 72 -299 154 -404 172 -11 2 -45 8 -75
14 -75 14 -229 13 -320 -1 -287 -44 -596 -234 -805 -494 -22 -28 -43 -52 -46
-55 -16 -12 -124 -188 -166 -267 -41 -80 -110 -245 -118 -283 -2 -8 -8 -27
-14 -42 -6 -16 -8 -28 -5 -28 2 0 0 -8 -5 -18 -6 -11 -12 -32 -15 -48 -3 -16
-8 -40 -11 -54 -34 -172 -38 -395 -9 -540 2 -14 7 -37 9 -52 20 -109 112 -320
176 -400 16 -20 29 -40 29 -43 0 -3 10 -16 23 -29 12 -13 34 -36 48 -52 104
-116 277 -231 474 -314 29 -13 206 -69 235 -75 14 -2 48 -10 75 -16 28 -6 58
-11 68 -11 9 1 17 0 17 -2 0 -1 -29 -90 -64 -197 -69 -209 -75 -218 -167 -281
-66 -46 -171 -146 -224 -213 -22 -27 -42 -52 -45 -55 -7 -7 -31 -48 -57 -99
-12 -24 -26 -48 -31 -55 -11 -14 -53 -142 -59 -181 -2 -16 -8 -46 -12 -65 -11
-52 -11 -237 0 -295 6 -27 12 -62 14 -76 4 -30 24 -105 35 -134 4 -11 18 -47
31 -80 46 -122 156 -312 248 -425 20 -25 43 -53 51 -64 79 -97 318 -311 414
-370 17 -10 33 -22 36 -25 3 -4 12 -11 20 -14 8 -4 42 -23 75 -43 102 -60 292
-144 359 -159 11 -3 44 -11 73 -19 187 -52 415 -54 595 -5 81 22 208 78 208
91 0 5 4 7 9 4 10 -7 147 93 201 145 54 53 120 129 112 129 -4 0 -2 4 4 8 33
23 194 306 194 344 0 10 2 10 9 -1 6 -9 6 -22 0 -33 -5 -10 -6 -18 -2 -18 4 0
7 -26 6 -57 -4 -114 19 -155 93 -167 38 -7 61 7 140 84 52 51 67 61 75 50 5
-8 9 -20 9 -26 0 -31 81 -194 146 -296 50 -78 76 -110 161 -193 81 -81 251
-195 290 -195 7 0 13 -3 13 -8 0 -9 44 -25 165 -58 61 -17 70 -18 165 -31 94
-12 294 -7 395 11 109 18 181 37 296 76 97 33 321 137 327 152 2 4 9 8 15 8 9
0 185 115 197 129 3 3 34 31 70 61 79 66 175 165 198 203 9 15 19 27 23 27 21
0 164 255 188 335 7 22 15 47 18 55 9 22 9 21 18 65 4 22 10 49 12 60 11 49
10 226 -1 288 -7 37 -11 67 -8 67 2 0 0 6 -5 13 -6 6 -13 26 -16 42 -5 26 -2
32 21 43 57 25 60 41 58 342 -1 290 -4 307 -49 332 -16 9 -105 13 -329 13
l-306 1 -54 34 c-29 19 -64 40 -78 48 -188 103 -243 139 -235 152 6 9 78 -4
165 -29 89 -26 174 -47 240 -60 30 -6 66 -14 80 -17 35 -7 82 -13 235 -29 46
-5 296 -6 340 -1 47 5 138 18 158 22 41 9 55 13 97 24 25 7 50 13 57 14 7 1
16 5 19 9 4 4 14 7 22 7 23 0 245 111 259 129 7 9 13 12 13 6 0 -7 3 -7 8 0 4
6 30 28 57 49 63 50 129 116 180 181 22 28 43 52 48 53 4 2 7 8 7 14 0 5 9 22
20 37 88 124 176 389 196 591 13 120 5 404 -11 430 -2 4 -7 29 -11 56 -3 27
-8 52 -10 55 -2 3 -5 19 -8 35 -14 75 -111 338 -139 374 -7 8 -21 33 -32 55
-29 57 -125 191 -182 252 -51 55 -51 56 9 67 15 2 64 16 110 30 46 14 86 25
91 25 4 0 13 5 20 11 6 6 25 20 40 31 15 12 37 40 50 62 21 41 22 52 23 387 1
309 -1 350 -17 393 -19 51 -53 87 -108 113 -28 13 -76 16 -305 16 -149 -1
-280 -3 -291 -6 -11 -2 -23 -5 -27 -5 -18 -2 -73 -59 -86 -91 -19 -43 -24
-186 -8 -239 14 -47 43 -84 84 -105 38 -20 92 -26 110 -13 7 6 12 6 12 0 0 -5
23 -8 50 -7 l50 1 0 -67 c0 -79 -1 -80 -91 -75 -79 4 -97 8 -145 33 -47 24
-73 47 -99 87 -18 28 -57 107 -56 113 1 1 1 3 0 5 -15 50 -17 196 -2 265 29
142 115 237 239 265 89 20 159 16 294 -18 13 -4 68 -28 95 -42 93 -48 109 -54
148 -52 72 4 116 38 141 110 22 64 16 244 -10 287 -10 18 -22 32 -26 32 -4 0
-8 6 -8 13 0 20 -142 103 -189 110 -9 1 -20 5 -26 8 -11 7 -58 19 -95 25 -117
18 -161 21 -270 18 -108 -3 -148 -6 -170 -14 -3 -1 -8 -2 -11 -2 -4 1 -22 -3
-40 -9 -19 -6 -41 -12 -50 -14 -34 -7 -154 -58 -157 -67 -2 -4 -8 -8 -14 -8
-16 0 -130 -87 -174 -132 -56 -59 -111 -140 -148 -218 -17 -36 -31 -69 -32
-75 0 -5 -4 -17 -7 -25 -11 -27 -29 -104 -33 -140 -15 -135 -19 -90 -19 238 0
347 0 348 -60 401 -42 36 -82 46 -200 46 -112 0 -174 -21 -213 -73 -26 -34
-27 -41 -30 -169 -2 -73 -7 -133 -11 -133 -4 0 -13 16 -20 36 -16 45 -56 128
-82 172 -72 122 -227 285 -339 358 -25 16 -47 31 -50 34 -6 7 -150 90 -156 90
-2 0 -34 14 -71 31 -116 53 -292 104 -433 126 -14 2 -41 6 -60 9 -79 12 -348
10 -425 -4z m2160 -1261 c3 -5 2 -12 -3 -15 -5 -3 -9 1 -9 9 0 17 3 19 12 6z
m3 -238 c2 -21 5 -46 8 -55 3 -9 7 -27 9 -39 14 -74 55 -171 106 -255 l19 -31
-42 -8 c-24 -4 -47 -9 -53 -10 -5 -2 -21 -4 -35 -6 l-25 -4 0 227 c0 124 2
225 5 223 3 -2 7 -21 8 -42z m-593 -596 l43 -45 -66 -44 c-36 -23 -72 -47 -81
-53 -26 -16 -154 -113 -176 -132 -101 -90 -176 -135 -190 -113 -7 11 20 62 50
94 14 15 25 29 25 32 0 3 9 15 21 27 30 31 159 214 221 312 l51 82 30 -57 c16
-32 48 -78 72 -103z m-2557 136 c0 -5 1 -15 4 -23 4 -8 16 -49 29 -90 12 -41
26 -79 31 -84 9 -11 11 -66 2 -66 -11 0 -33 28 -73 94 -36 58 -40 70 -29 89 6
12 11 23 10 24 -5 8 12 63 19 63 5 0 8 -3 7 -7z m366 -762 c89 -39 91 -44 89
-221 -1 -114 3 -163 13 -186 27 -62 18 -61 677 -60 471 1 597 -2 597 -11 0 -7
-4 -13 -10 -13 -5 0 -10 -6 -10 -12 0 -7 -13 -23 -28 -35 -16 -12 -41 -34 -56
-48 -15 -14 -30 -25 -34 -25 -12 -1 -60 -75 -67 -103 -6 -21 -1 -35 19 -61 24
-32 78 -61 90 -49 3 4 6 2 6 -4 0 -5 14 -10 30 -11 47 -1 158 -41 207 -75 25
-16 58 -48 75 -71 26 -36 29 -47 25 -91 -4 -42 -10 -55 -45 -85 -52 -46 -129
-70 -223 -69 -41 0 -107 1 -146 1 -68 1 -74 0 -102 -29 -25 -26 -28 -37 -24
-69 3 -22 9 -44 14 -50 5 -6 6 -14 2 -17 -3 -4 -1 -7 5 -7 7 0 12 -5 12 -12 0
-6 6 -19 14 -27 51 -58 99 -184 99 -263 0 -82 -33 -129 -105 -151 -11 -4 -136
115 -436 413 -230 231 -431 426 -446 434 -35 18 -90 6 -117 -25 -10 -12 -20
-25 -20 -28 -3 -10 -10 -104 -9 -121 3 -146 1 -250 -4 -259 -4 -6 -3 -11 2
-11 5 0 7 -11 5 -25 -3 -13 -8 -24 -12 -23 -15 4 -71 -15 -71 -23 0 -6 -4 -8
-9 -5 -4 3 -21 -5 -36 -18 -36 -31 -128 -76 -185 -90 -156 -40 -258 43 -221
180 13 48 59 120 104 161 116 109 146 141 153 167 16 67 -32 115 -138 135 -35
7 -70 15 -78 18 -8 4 -20 7 -27 9 -29 6 -111 52 -142 79 -58 52 -79 106 -61
160 16 48 62 86 136 111 54 18 83 21 163 18 54 -2 102 -4 107 -6 5 -1 28 1 51
5 48 8 83 45 83 86 0 28 -32 97 -79 172 -59 95 -86 218 -61 283 5 15 24 40 42
56 28 26 37 28 84 25 29 -2 74 -13 98 -24z"/>
</g>
</svg>
